<svg xmlns="http://www.w3.org/2000/svg" viewBox="0 0 1200 900" width="1200" height="900" role="img" aria-label="Illustration of coffee sacks and a roaster">
  <defs><linearGradient id="bg" x1="0" y1="0" x2="1" y2="1"><stop offset="0" stop-color="#f3ede3"/><stop offset="1" stop-color="#d9c7ad"/></linearGradient></defs>
  <rect width="1200" height="900" fill="url(#bg)"/>
  <rect x="0" y="640" width="1200" height="260" fill="#8a5432"/>
  <g fill="#b48a5a">
    <path d="M120 660c0-120 60-220 170-220s170 100 170 220z"/>
    <path d="M380 660c0-100 50-190 150-190s150 90 150 190z"/>
  </g>
  <g fill="#4a2a15" opacity=".35"><ellipse cx="290" cy="450" rx="110" ry="24"/><ellipse cx="530" cy="480" rx="95" ry="20"/></g>
  <g transform="translate(760 300)">
    <rect x="0" y="0" width="300" height="360" rx="24" fill="#2b2b2b"/>
    <circle cx="150" cy="150" r="90" fill="#1a1a1a" stroke="#c98a4b" stroke-width="14"/>
    <circle cx="150" cy="150" r="40" fill="#7c2d12"/>
    <rect x="60" y="280" width="180" height="40" rx="8" fill="#c98a4b"/>
  </g>
  <g fill="#7c2d12"><ellipse cx="240" cy="560" rx="14" ry="9"/><ellipse cx="275" cy="575" rx="14" ry="9"/><ellipse cx="205" cy="580" rx="14" ry="9"/><ellipse cx="500" cy="590" rx="14" ry="9"/><ellipse cx="540" cy="580" rx="14" ry="9"/></g>
</svg>
